<svg version="1.1" id="Layer_1" xmlns="http://www.w3.org/2000/svg" xmlns:xlink="http://www.w3.org/1999/xlink" x="0px" y="0px"
	 width="100%" viewBox="0 0 1080 1080" enable-background="new 0 0 1080 1080" xml:space="preserve">
<path fill="#EE811A" opacity="1.000000" stroke="none" 
	d="
M633.000000,1081.000000 
	C422.024292,1081.000000 211.548584,1081.000000 1.036436,1081.000000 
	C1.036436,721.065857 1.036436,361.131653 1.036436,1.098749 
	C360.892609,1.098749 720.785217,1.098749 1080.838867,1.098749 
	C1080.838867,360.999939 1080.838867,720.999939 1080.838867,1081.000000 
	C931.797852,1081.000000 782.648926,1081.000000 633.000000,1081.000000 
M764.441895,835.632690 
	C791.268677,835.420227 818.095337,835.202026 844.922180,834.997131 
	C863.918457,834.852051 882.914734,834.662231 901.911194,834.648865 
	C905.274292,834.646545 907.262329,833.987915 907.324280,830.135925 
	C907.481323,820.362976 909.146912,810.411987 907.830383,800.859985 
	C905.142029,781.355225 894.646545,767.723511 874.825867,761.849121 
	C867.287415,759.614929 859.960999,755.844238 853.316833,751.564575 
	C831.704468,737.643616 817.938538,717.049377 807.250793,694.314880 
	C788.311340,654.027832 779.277893,611.005127 775.304504,567.070557 
	C772.247742,533.270508 771.399658,499.251862 770.205688,465.308014 
	C769.178955,436.119293 766.881653,407.120453 760.977417,378.486084 
	C753.924438,344.280029 742.740601,311.674774 722.550232,282.770111 
	C702.356323,253.860535 676.296265,232.759918 641.602600,223.709961 
	C634.560181,221.872910 627.290710,220.906174 620.157227,219.544189 
	C618.791809,210.037186 617.974182,200.393127 615.963867,191.004456 
	C605.108887,140.310440 550.037842,114.374771 504.677765,138.553207 
	C483.390839,149.899826 471.961731,168.814163 466.134521,191.428055 
	C463.746399,200.695923 462.629120,210.291275 460.896423,219.945450 
	C459.435211,220.169312 457.635498,220.514160 455.819824,220.712509 
	C436.594055,222.812714 418.982452,229.453430 402.703369,239.731110 
	C375.824371,256.700928 356.822174,280.645111 343.071472,308.824677 
	C317.400726,361.432312 310.369873,417.975067 310.570770,475.524902 
	C310.765320,531.255493 306.564819,586.347412 292.752625,640.437134 
	C285.091156,670.440002 274.303375,699.219727 255.631866,724.407166 
	C242.411926,742.240601 225.975571,755.894165 204.414948,762.509094 
	C192.758911,766.085205 184.322235,773.434204 178.678833,784.001770 
	C171.003372,798.374451 171.010101,813.673401 173.573013,829.291382 
	C174.244507,833.383362 175.871918,834.707520 180.072449,834.694702 
	C202.734177,834.625671 225.397552,834.810242 248.059128,835.033081 
	C419.856873,836.721741 591.655090,837.811584 764.441895,835.632690 
M614.649109,930.164185 
	C637.133972,913.083374 650.694275,891.235779 651.670166,862.250122 
	C577.370117,862.250122 503.824738,862.250122 429.850555,862.250122 
	C430.094910,865.654724 430.102509,868.650085 430.551971,871.577576 
	C435.369873,902.959595 453.506348,925.121460 480.982544,938.792236 
	C526.498169,961.438538 571.290100,958.982727 614.649109,930.164185 
M814.983215,176.517639 
	C790.131836,151.238953 760.734375,133.227203 727.273926,121.748665 
	C719.258972,118.999146 712.387939,121.907333 710.047241,128.813614 
	C707.645081,135.901108 711.387512,143.415146 718.921326,145.871780 
	C740.012573,152.749191 759.454834,162.795471 777.028809,176.287430 
	C821.868774,210.712067 842.031372,256.225220 836.274292,312.450256 
	C834.590210,328.896881 830.007141,345.055481 826.591553,361.312225 
	C824.979919,368.982941 828.646057,376.086792 835.545349,377.907623 
	C843.121826,379.907166 848.921814,376.376465 851.336182,368.209625 
	C856.870178,349.490112 860.825073,330.484558 862.254517,310.961487 
	C866.020630,259.526489 850.860352,214.757355 814.983215,176.517639 
M369.555267,140.868851 
	C373.005707,135.308868 373.179565,129.737930 368.828491,124.692383 
	C364.699402,119.904266 359.286804,119.523964 353.770050,121.901581 
	C341.562347,127.162926 329.052032,131.896408 317.358551,138.143204 
	C285.450714,155.188751 258.757202,178.280060 240.828873,210.094955 
	C211.651505,261.871918 213.665329,315.896606 230.921906,370.666718 
	C232.740494,376.438721 238.049927,379.094879 243.990311,378.209991 
	C252.732513,376.907715 256.559479,369.299744 254.438431,359.660675 
	C250.762589,342.955780 246.414688,326.237701 244.735504,309.288696 
	C241.462952,276.256561 247.860641,244.818558 266.197174,216.664978 
	C288.962128,181.712097 321.927704,160.152847 360.610443,146.370483 
	C363.633453,145.293411 366.264618,143.116547 369.555267,140.868851 
M356.458801,191.800385 
	C330.732941,201.584747 308.765503,216.472931 294.325134,240.380508 
	C277.372681,268.447113 277.035370,298.408539 286.433075,329.011780 
	C288.808411,336.746918 295.222015,340.637238 301.966492,338.722992 
	C308.803101,336.782593 312.838501,329.559143 311.144470,322.114655 
	C310.001556,317.092224 308.461884,312.148865 307.535065,307.090363 
	C302.635559,280.349548 308.762726,256.921112 328.756531,237.773849 
	C338.763977,228.190109 350.422058,221.340240 363.421082,216.621216 
	C370.689087,213.982712 374.453949,207.222885 372.740417,200.487747 
	C370.996643,193.633789 365.221283,190.306030 356.458801,191.800385 
M765.938904,254.655701 
	C776.165222,271.612549 777.087646,289.882294 773.487793,308.755524 
	C772.399536,314.461029 770.514893,320.069885 769.993774,325.813629 
	C769.411865,332.226654 774.611023,338.004700 780.648254,338.963654 
	C786.969421,339.967743 792.741943,336.208435 794.754517,329.698364 
	C795.491272,327.315094 796.095642,324.889038 796.705078,322.468597 
	C807.482056,279.663361 797.946472,243.020523 763.607910,214.015106 
	C752.315491,204.476440 739.632935,197.155304 725.756592,192.094666 
	C717.095886,188.936111 709.460449,193.629715 708.359924,202.246277 
	C707.537781,208.683060 711.486267,214.201752 718.686401,216.908630 
	C738.268921,224.270645 754.419800,235.991058 765.938904,254.655701 
z"/>
<path fill="#815AC7" opacity="1.000000" stroke="none" 
	d="
M763.949585,835.638184 
	C591.655090,837.811584 419.856873,836.721741 248.059128,835.033081 
	C225.397552,834.810242 202.734177,834.625671 180.072449,834.694702 
	C175.871918,834.707520 174.244507,833.383362 173.573013,829.291382 
	C171.010101,813.673401 171.003372,798.374451 178.678833,784.001770 
	C184.322235,773.434204 192.758911,766.085205 204.414948,762.509094 
	C225.975571,755.894165 242.411926,742.240601 255.631866,724.407166 
	C274.303375,699.219727 285.091156,670.440002 292.752625,640.437134 
	C306.564819,586.347412 310.765320,531.255493 310.570770,475.524902 
	C310.369873,417.975067 317.400726,361.432312 343.071472,308.824677 
	C356.822174,280.645111 375.824371,256.700928 402.703369,239.731110 
	C418.982452,229.453430 436.594055,222.812714 455.819824,220.712509 
	C457.635498,220.514160 459.435211,220.169312 460.896423,219.945450 
	C462.629120,210.291275 463.746399,200.695923 466.134521,191.428055 
	C471.961731,168.814163 483.390839,149.899826 504.677765,138.553207 
	C550.037842,114.374771 605.108887,140.310440 615.963867,191.004456 
	C617.974182,200.393127 618.791809,210.037186 620.157227,219.544189 
	C627.290710,220.906174 634.560181,221.872910 641.602600,223.709961 
	C676.296265,232.759918 702.356323,253.860535 722.550232,282.770111 
	C742.740601,311.674774 753.924438,344.280029 760.977417,378.486084 
	C766.881653,407.120453 769.178955,436.119293 770.205688,465.308014 
	C771.399658,499.251862 772.247742,533.270508 775.304504,567.070557 
	C779.277893,611.005127 788.311340,654.027832 807.250793,694.314880 
	C817.938538,717.049377 831.704468,737.643616 853.316833,751.564575 
	C859.960999,755.844238 867.287415,759.614929 874.825867,761.849121 
	C894.646545,767.723511 905.142029,781.355225 907.830383,800.859985 
	C909.146912,810.411987 907.481323,820.362976 907.324280,830.135925 
	C907.262329,833.987915 905.274292,834.646545 901.911194,834.648865 
	C882.914734,834.662231 863.918457,834.852051 844.922180,834.997131 
	C818.095337,835.202026 791.268677,835.420227 763.949585,835.638184 
z"/>
<path fill="#815AC7" opacity="1.000000" stroke="none" 
	d="
M614.361206,930.378906 
	C571.290100,958.982727 526.498169,961.438538 480.982544,938.792236 
	C453.506348,925.121460 435.369873,902.959595 430.551971,871.577576 
	C430.102509,868.650085 430.094910,865.654724 429.850555,862.250122 
	C503.824738,862.250122 577.370117,862.250122 651.670166,862.250122 
	C650.694275,891.235779 637.133972,913.083374 614.361206,930.378906 
z"/>
<path fill="#825AC5" opacity="1.000000" stroke="none" 
	d="
M815.233398,176.768250 
	C850.860352,214.757355 866.020630,259.526489 862.254517,310.961487 
	C860.825073,330.484558 856.870178,349.490112 851.336182,368.209625 
	C848.921814,376.376465 843.121826,379.907166 835.545349,377.907623 
	C828.646057,376.086792 824.979919,368.982941 826.591553,361.312225 
	C830.007141,345.055481 834.590210,328.896881 836.274292,312.450256 
	C842.031372,256.225220 821.868774,210.712067 777.028809,176.287430 
	C759.454834,162.795471 740.012573,152.749191 718.921326,145.871780 
	C711.387512,143.415146 707.645081,135.901108 710.047241,128.813614 
	C712.387939,121.907333 719.258972,118.999146 727.273926,121.748665 
	C760.734375,133.227203 790.131836,151.238953 815.233398,176.768250 
z"/>
<path fill="#825AC5" opacity="1.000000" stroke="none" 
	d="
M369.316589,141.159836 
	C366.264618,143.116547 363.633453,145.293411 360.610443,146.370483 
	C321.927704,160.152847 288.962128,181.712097 266.197174,216.664978 
	C247.860641,244.818558 241.462952,276.256561 244.735504,309.288696 
	C246.414688,326.237701 250.762589,342.955780 254.438431,359.660675 
	C256.559479,369.299744 252.732513,376.907715 243.990311,378.209991 
	C238.049927,379.094879 232.740494,376.438721 230.921906,370.666718 
	C213.665329,315.896606 211.651505,261.871918 240.828873,210.094955 
	C258.757202,178.280060 285.450714,155.188751 317.358551,138.143204 
	C329.052032,131.896408 341.562347,127.162926 353.770050,121.901581 
	C359.286804,119.523964 364.699402,119.904266 368.828491,124.692383 
	C373.179565,129.737930 373.005707,135.308868 369.316589,141.159836 
z"/>
<path fill="#825AC5" opacity="1.000000" stroke="none" 
	d="
M356.849060,191.678207 
	C365.221283,190.306030 370.996643,193.633789 372.740417,200.487747 
	C374.453949,207.222885 370.689087,213.982712 363.421082,216.621216 
	C350.422058,221.340240 338.763977,228.190109 328.756531,237.773849 
	C308.762726,256.921112 302.635559,280.349548 307.535065,307.090363 
	C308.461884,312.148865 310.001556,317.092224 311.144470,322.114655 
	C312.838501,329.559143 308.803101,336.782593 301.966492,338.722992 
	C295.222015,340.637238 288.808411,336.746918 286.433075,329.011780 
	C277.035370,298.408539 277.372681,268.447113 294.325134,240.380508 
	C308.765503,216.472931 330.732941,201.584747 356.849060,191.678207 
z"/>
<path fill="#825AC5" opacity="1.000000" stroke="none" 
	d="
M765.750977,254.339691 
	C754.419800,235.991058 738.268921,224.270645 718.686401,216.908630 
	C711.486267,214.201752 707.537781,208.683060 708.359924,202.246277 
	C709.460449,193.629715 717.095886,188.936111 725.756592,192.094666 
	C739.632935,197.155304 752.315491,204.476440 763.607910,214.015106 
	C797.946472,243.020523 807.482056,279.663361 796.705078,322.468597 
	C796.095642,324.889038 795.491272,327.315094 794.754517,329.698364 
	C792.741943,336.208435 786.969421,339.967743 780.648254,338.963654 
	C774.611023,338.004700 769.411865,332.226654 769.993774,325.813629 
	C770.514893,320.069885 772.399536,314.461029 773.487793,308.755524 
	C777.087646,289.882294 776.165222,271.612549 765.750977,254.339691 
z"/>
</svg>